<svg width="23" height="22" viewBox="0 0 23 22" fill="none" xmlns="http://www.w3.org/2000/svg">
<path d="M8.24852 16.4485C8.47356 16.2235 8.59999 15.9183 8.59999 15.6C8.59999 15.2817 8.47356 14.9765 8.24852 14.7515C8.02347 14.5264 7.71825 14.4 7.39999 14.4C7.08173 14.4 6.7765 14.5264 6.55146 14.7515C6.32642 14.9765 6.19999 15.2817 6.19999 15.6C6.19999 15.9183 6.32642 16.2235 6.55146 16.4485C6.7765 16.6736 7.08173 16.8 7.39999 16.8C7.71825 16.8 8.02347 16.6736 8.24852 16.4485Z" fill="black"/>
<path d="M15.8 15.6C15.8 15.9183 15.6736 16.2235 15.4485 16.4485C15.2235 16.6736 14.9182 16.8 14.6 16.8C14.2817 16.8 13.9765 16.6736 13.7515 16.4485C13.5264 16.2235 13.4 15.9183 13.4 15.6C13.4 15.2817 13.5264 14.9765 13.7515 14.7515C13.9765 14.5264 14.2817 14.4 14.6 14.4C14.9182 14.4 15.2235 14.5264 15.4485 14.7515C15.6736 14.9765 15.8 15.2817 15.8 15.6Z" fill="black"/>
<path fill-rule="evenodd" clip-rule="evenodd" d="M11 2.4H6.79999C5.68608 2.4 4.61779 2.8425 3.83014 3.63015C3.04249 4.41781 2.59999 5.48609 2.59999 6.6V9.6H1.39999C1.24086 9.6 1.08825 9.66322 0.975724 9.77574C0.863202 9.88826 0.799988 10.0409 0.799988 10.2C0.799988 10.3591 0.863202 10.5117 0.975724 10.6243C1.08825 10.7368 1.24086 10.8 1.39999 10.8H2.59999V19.8C2.59999 20.2774 2.78963 20.7352 3.1272 21.0728C3.46476 21.4104 3.9226 21.6 4.39999 21.6H5.59999C6.07738 21.6 6.53521 21.4104 6.87278 21.0728C7.21035 20.7352 7.39999 20.2774 7.39999 19.8V19.2H14.6V19.8C14.6 20.2774 14.7896 20.7352 15.1272 21.0728C15.4648 21.4104 15.9226 21.6 16.4 21.6H17.6C18.0774 21.6 18.5352 21.4104 18.8728 21.0728C19.2103 20.7352 19.4 20.2774 19.4 19.8V12L3.79999 12V6.6C3.79999 5.80435 4.11606 5.04129 4.67867 4.47868C5.24128 3.91607 6.00434 3.6 6.79999 3.6H11V2.4ZM15.8 19.8V19.2H18.2V19.8C18.2 19.9591 18.1368 20.1117 18.0243 20.2243C17.9117 20.3368 17.7591 20.4 17.6 20.4H16.4C16.2409 20.4 16.0882 20.3368 15.9757 20.2243C15.8632 20.1117 15.8 19.9591 15.8 19.8ZM3.79999 19.8V19.2H6.19999V19.8C6.19999 19.9591 6.13677 20.1117 6.02425 20.2243C5.91173 20.3368 5.75912 20.4 5.59999 20.4H4.39999C4.24086 20.4 4.08825 20.3368 3.97572 20.2243C3.8632 20.1117 3.79999 19.9591 3.79999 19.8ZM18.2 18H3.79999V13.2H18.2V18Z" fill="black"/>
<path fill-rule="evenodd" clip-rule="evenodd" d="M18 0.5C18.2761 0.5 18.5 0.723858 18.5 1V4.5H22C22.2761 4.5 22.5 4.72386 22.5 5C22.5 5.27614 22.2761 5.5 22 5.5H18.5V9C18.5 9.27614 18.2761 9.5 18 9.5C17.7239 9.5 17.5 9.27614 17.5 9V5.5H14C13.7239 5.5 13.5 5.27614 13.5 5C13.5 4.72386 13.7239 4.5 14 4.5H17.5V1C17.5 0.723858 17.7239 0.5 18 0.5Z" fill="black"/>
</svg>
