<svg width="24" height="19" viewBox="0 0 24 19" fill="none" xmlns="http://www.w3.org/2000/svg">
<path d="M0.75 1.5C0.75 1.08579 1.08579 0.75 1.5 0.75H22.5C22.9142 0.75 23.25 1.08579 23.25 1.5C23.25 1.91421 22.9142 2.25 22.5 2.25H1.5C1.08579 2.25 0.75 1.91421 0.75 1.5Z" fill="#586A74"/>
<path d="M0.75 9.5C0.75 9.08579 1.08579 8.75 1.5 8.75H22.5C22.9142 8.75 23.25 9.08579 23.25 9.5C23.25 9.91421 22.9142 10.25 22.5 10.25H1.5C1.08579 10.25 0.75 9.91421 0.75 9.5Z" fill="#586A74"/>
<path d="M0.75 17.5C0.75 17.0858 1.08579 16.75 1.5 16.75H22.5C22.9142 16.75 23.25 17.0858 23.25 17.5C23.25 17.9142 22.9142 18.25 22.5 18.25H1.5C1.08579 18.25 0.75 17.9142 0.75 17.5Z" fill="#586A74"/>
</svg>
