<svg width="20" height="18" viewBox="0 0 20 18" fill="none" xmlns="http://www.w3.org/2000/svg">
<path fill-rule="evenodd" clip-rule="evenodd" d="M0 0.5C0 0.223858 0.223858 0 0.5 0H6.2C7.33949 0 8.43289 0.449985 9.23952 1.2519C10.0462 2.05391 10.5 3.14229 10.5 4.27778V17.5C10.5 17.7761 10.2761 18 10 18C9.72386 18 9.5 17.7761 9.5 17.5C9.5 16.8821 9.25313 16.2889 8.81274 15.8511C8.37225 15.4132 7.7742 15.1667 7.15 15.1667H0.5C0.223858 15.1667 0 14.9428 0 14.6667V0.5ZM9.5 15.1244V4.27778C9.5 3.40941 9.15304 2.57601 8.53449 1.96107C7.91584 1.34604 7.07616 1 6.2 1H1V14.1667H7.15C8.02919 14.1667 8.87329 14.5106 9.5 15.1244Z" fill="#161616"/>
<path fill-rule="evenodd" clip-rule="evenodd" d="M10.7605 1.2519C11.5671 0.449985 12.6605 0 13.8 0H19.5C19.7761 0 20 0.223858 20 0.5V14.6667C20 14.9428 19.7761 15.1667 19.5 15.1667H12.85C12.2258 15.1667 11.6277 15.4132 11.1873 15.8511C10.7469 16.2889 10.5 16.8821 10.5 17.5C10.5 17.7761 10.2761 18 10 18C9.72386 18 9.5 17.7761 9.5 17.5V4.27778C9.5 3.14229 9.95375 2.05391 10.7605 1.2519ZM10.5 15.1244C11.1267 14.5106 11.9708 14.1667 12.85 14.1667H19V1H13.8C12.9238 1 12.0842 1.34604 11.4655 1.96107C10.847 2.576 10.5 3.40941 10.5 4.27778V15.1244Z" fill="#161616"/>
</svg>
