<svg width="20" height="16" viewBox="0 0 20 16" fill="none" xmlns="http://www.w3.org/2000/svg">
<path fill-rule="evenodd" clip-rule="evenodd" d="M7.93365 1C7.76941 1 7.61564 1.08066 7.52228 1.21578L6.09318 3.28422C5.99982 3.41934 5.84606 3.5 5.68182 3.5H1.5C1.22386 3.5 1 3.72386 1 4L1 14.5C1 14.7761 1.22386 15 1.5 15H18.5C18.7761 15 19 14.7761 19 14.5V4C19 3.72386 18.7761 3.5 18.5 3.5H14.3182C14.1539 3.5 14.0002 3.41934 13.9068 3.28422L12.4777 1.21578C12.3844 1.08066 12.2306 1 12.0664 1H7.93365ZM6.69955 0.647352C6.97963 0.241976 7.44093 0 7.93365 0H12.0664C12.5591 0 13.0204 0.241977 13.3004 0.647352L14.5805 2.5H18.5C19.3284 2.5 20 3.17157 20 4V14.5C20 15.3284 19.3284 16 18.5 16H1.5C0.67157 16 -5.36441e-07 15.3284 0 14.5L3.87431e-07 4C2.98024e-07 3.17157 0.671573 2.5 1.5 2.5H5.41954L6.69955 0.647352Z" fill="#161616"/>
<path fill-rule="evenodd" clip-rule="evenodd" d="M10 5.90918C8.34314 5.90918 7 7.25233 7 8.90918C7 10.566 8.34314 11.9092 10 11.9092C11.6569 11.9092 13 10.566 13 8.90918C13 7.25233 11.6569 5.90918 10 5.90918ZM6 8.90918C6 6.70004 7.79086 4.90918 10 4.90918C12.2091 4.90918 14 6.70004 14 8.90918C14 11.1183 12.2091 12.9092 10 12.9092C7.79086 12.9092 6 11.1183 6 8.90918Z" fill="#161616"/>
</svg>
