<svg width="22" height="20" viewBox="0 0 22 20" fill="none" xmlns="http://www.w3.org/2000/svg">
<path d="M9.79999 2.79999C9.64086 2.79999 9.48825 2.86321 9.37572 2.97573C9.2632 3.08825 9.19999 3.24086 9.19999 3.39999C9.19999 3.55912 9.2632 3.71174 9.37572 3.82426C9.48825 3.93678 9.64086 3.99999 9.79999 3.99999H12.2C12.3591 3.99999 12.5117 3.93678 12.6243 3.82426C12.7368 3.71174 12.8 3.55912 12.8 3.39999C12.8 3.24086 12.7368 3.08825 12.6243 2.97573C12.5117 2.86321 12.3591 2.79999 12.2 2.79999H9.79999ZM8.59999 13.6C8.59999 13.9183 8.47356 14.2235 8.24852 14.4485C8.02347 14.6736 7.71825 14.8 7.39999 14.8C7.08173 14.8 6.7765 14.6736 6.55146 14.4485C6.32642 14.2235 6.19999 13.9183 6.19999 13.6C6.19999 13.2817 6.32642 12.9765 6.55146 12.7515C6.7765 12.5264 7.08173 12.4 7.39999 12.4C7.71825 12.4 8.02347 12.5264 8.24852 12.7515C8.47356 12.9765 8.59999 13.2817 8.59999 13.6ZM14.6 14.8C14.9182 14.8 15.2235 14.6736 15.4485 14.4485C15.6736 14.2235 15.8 13.9183 15.8 13.6C15.8 13.2817 15.6736 12.9765 15.4485 12.7515C15.2235 12.5264 14.9182 12.4 14.6 12.4C14.2817 12.4 13.9765 12.5264 13.7515 12.7515C13.5264 12.9765 13.4 13.2817 13.4 13.6C13.4 13.9183 13.5264 14.2235 13.7515 14.4485C13.9765 14.6736 14.2817 14.8 14.6 14.8ZM2.59999 4.59999C2.59999 3.48608 3.04249 2.4178 3.83014 1.63015C4.61779 0.842493 5.68608 0.399994 6.79999 0.399994H15.2C16.3139 0.399994 17.3822 0.842493 18.1698 1.63015C18.9575 2.4178 19.4 3.48608 19.4 4.59999V7.59999H20.6C20.7591 7.59999 20.9117 7.66321 21.0243 7.77573C21.1368 7.88825 21.2 8.04086 21.2 8.19999C21.2 8.35912 21.1368 8.51174 21.0243 8.62426C20.9117 8.73678 20.7591 8.79999 20.6 8.79999H19.4V17.8C19.4 18.2774 19.2103 18.7352 18.8728 19.0728C18.5352 19.4104 18.0774 19.6 17.6 19.6H16.4C15.9226 19.6 15.4648 19.4104 15.1272 19.0728C14.7896 18.7352 14.6 18.2774 14.6 17.8V17.2H7.39999V17.8C7.39999 18.2774 7.21035 18.7352 6.87278 19.0728C6.53521 19.4104 6.07738 19.6 5.59999 19.6H4.39999C3.9226 19.6 3.46476 19.4104 3.1272 19.0728C2.78963 18.7352 2.59999 18.2774 2.59999 17.8V8.79999H1.39999C1.24086 8.79999 1.08825 8.73678 0.975724 8.62426C0.863202 8.51174 0.799988 8.35912 0.799988 8.19999C0.799988 8.04086 0.863202 7.88825 0.975724 7.77573C1.08825 7.66321 1.24086 7.59999 1.39999 7.59999H2.59999V4.59999ZM18.2 4.59999C18.2 3.80434 17.8839 3.04128 17.3213 2.47867C16.7587 1.91606 15.9956 1.59999 15.2 1.59999H6.79999C6.00434 1.59999 5.24128 1.91606 4.67867 2.47867C4.11606 3.04128 3.79999 3.80434 3.79999 4.59999V9.99999H18.2V4.59999ZM15.8 17.2V17.8C15.8 17.9591 15.8632 18.1117 15.9757 18.2243C16.0882 18.3368 16.2409 18.4 16.4 18.4H17.6C17.7591 18.4 17.9117 18.3368 18.0243 18.2243C18.1368 18.1117 18.2 17.9591 18.2 17.8V17.2H15.8ZM3.79999 17.2V17.8C3.79999 17.9591 3.8632 18.1117 3.97572 18.2243C4.08825 18.3368 4.24086 18.4 4.39999 18.4H5.59999C5.75912 18.4 5.91173 18.3368 6.02425 18.2243C6.13677 18.1117 6.19999 17.9591 6.19999 17.8V17.2H3.79999ZM3.79999 16H18.2V11.2H3.79999V16Z" fill="black"/>
</svg>
