<svg width="16" height="20" viewBox="0 0 16 20" fill="none" xmlns="http://www.w3.org/2000/svg">
<path d="M9.79999 6.99999C9.79999 7.47738 9.61034 7.93522 9.27278 8.27279C8.93521 8.61035 8.47738 8.79999 7.99999 8.79999C7.5226 8.79999 7.06476 8.61035 6.72719 8.27279C6.38963 7.93522 6.19999 7.47738 6.19999 6.99999C6.19999 6.5226 6.38963 6.06477 6.72719 5.7272C7.06476 5.38964 7.5226 5.19999 7.99999 5.19999C8.47738 5.19999 8.93521 5.38964 9.27278 5.7272C9.61034 6.06477 9.79999 6.5226 9.79999 6.99999ZM4.39999 10.9V11.2C4.39999 11.8365 4.65284 12.447 5.10293 12.897C5.55302 13.3471 6.16347 13.6 6.79999 13.6H9.19999C9.83651 13.6 10.447 13.3471 10.897 12.897C11.3471 12.447 11.6 11.8365 11.6 11.2V10.9C11.6 10.6613 11.5052 10.4324 11.3364 10.2636C11.1676 10.0948 10.9387 9.99999 10.7 9.99999H5.29999C5.06129 9.99999 4.83237 10.0948 4.66359 10.2636C4.49481 10.4324 4.39999 10.6613 4.39999 10.9ZM0.799988 2.79999V17.2C0.799988 17.8365 1.05284 18.447 1.50293 18.8971C1.95302 19.3471 2.56347 19.6 3.19999 19.6H14.6C14.7591 19.6 14.9117 19.5368 15.0243 19.4243C15.1368 19.3117 15.2 19.1591 15.2 19C15.2 18.8409 15.1368 18.6883 15.0243 18.5757C14.9117 18.4632 14.7591 18.4 14.6 18.4H3.19999C2.88173 18.4 2.5765 18.2736 2.35146 18.0485C2.12642 17.8235 1.99999 17.5183 1.99999 17.2H14C14.3182 17.2 14.6235 17.0736 14.8485 16.8485C15.0736 16.6235 15.2 16.3183 15.2 16V2.79999C15.2 2.16347 14.9471 1.55302 14.497 1.10294C14.047 0.65285 13.4365 0.399994 12.8 0.399994H3.19999C2.56347 0.399994 1.95302 0.65285 1.50293 1.10294C1.05284 1.55302 0.799988 2.16347 0.799988 2.79999ZM12.8 1.59999C13.1182 1.59999 13.4235 1.72642 13.6485 1.95147C13.8736 2.17651 14 2.48173 14 2.79999V16H1.99999V2.79999C1.99999 2.48173 2.12642 2.17651 2.35146 1.95147C2.5765 1.72642 2.88173 1.59999 3.19999 1.59999H12.8Z" fill="black"/>
</svg>
