<svg width="23" height="22" viewBox="0 0 23 22" fill="none" xmlns="http://www.w3.org/2000/svg">
<path fill-rule="evenodd" clip-rule="evenodd" d="M11.9938 4.59087C11.422 4.58952 10.852 4.65467 10.2953 4.78498C10.0264 4.84792 9.75745 4.68097 9.69451 4.4121C9.63158 4.14322 9.79852 3.87424 10.0674 3.8113C10.6994 3.66336 11.3465 3.58939 11.9956 3.59087C15.2178 3.59109 17.7156 5.43147 19.3768 7.20344C20.212 8.09435 20.8508 8.98334 21.2808 9.64915C21.4961 9.98254 21.6599 10.2612 21.7705 10.458C21.8259 10.5563 21.868 10.6343 21.8967 10.6885C21.911 10.7156 21.922 10.7367 21.9296 10.7515L21.9384 10.7689L21.941 10.7739L21.9417 10.7754C21.9417 10.7754 21.9422 10.7764 21.495 11L21.054 10.7643C21.0122 10.8425 20.9698 10.9203 20.9266 10.9977C20.9179 10.982 20.9087 10.9655 20.899 10.9482C20.7971 10.7671 20.6438 10.506 20.4407 10.1917C20.0341 9.56203 19.4314 8.72375 18.6473 7.88739C17.07 6.20492 14.818 4.59087 11.995 4.59087L11.9938 4.59087ZM20.9266 10.9977C20.4459 11.8611 19.8835 12.6766 19.247 13.433C19.0692 13.6443 19.0963 13.9597 19.3076 14.1375C19.5189 14.3153 19.8343 14.2882 20.0121 14.0769C20.7505 13.1993 21.3953 12.2471 21.9359 11.2357C22.0124 11.0926 22.0147 10.9214 21.9422 10.7764L21.495 11C21.0478 11.2236 21.0479 11.2238 21.0479 11.2238L21.0465 11.221L21.0402 11.2088C21.0344 11.1974 21.0252 11.1797 21.0128 11.1562C20.9926 11.1182 20.9639 11.0647 20.9266 10.9977ZM6.56154 5.47257C6.76061 5.32056 7.04144 5.3393 7.21854 5.51641L17.4785 15.7764C17.5806 15.8784 17.6335 16.0195 17.6239 16.1635C17.6142 16.3074 17.5428 16.4402 17.4281 16.5276C15.8669 17.7176 13.9659 18.3769 12.0032 18.409L11.995 18.4091C8.77251 18.4091 6.2745 16.5686 4.61318 14.7965C3.77795 13.9056 3.13921 13.0166 2.7092 12.3508C2.49389 12.0174 2.3301 11.7387 2.21945 11.542C2.1641 11.4436 2.12199 11.3656 2.09332 11.3114C2.07899 11.2843 2.06801 11.2632 2.06041 11.2484L2.05155 11.231L2.04903 11.2261L2.04824 11.2245C2.04824 11.2245 2.04778 11.2236 2.49499 11L2.04778 11.2236C1.97512 11.0783 1.9776 10.9067 2.05441 10.7635C3.16239 8.69873 4.69913 6.89473 6.56154 5.47257ZM3.06359 11.0027C3.07228 11.0183 3.08142 11.0346 3.09102 11.0517C3.1929 11.2328 3.34623 11.4939 3.54924 11.8082C3.95589 12.4379 4.55862 13.2762 5.34271 14.1125C6.91926 15.7942 9.16985 17.4075 11.9909 17.409C13.5466 17.3828 15.0586 16.9146 16.3526 16.0647L13.8079 13.5199C13.6169 13.666 13.409 13.7896 13.1883 13.8879C12.8092 14.0569 12.3999 14.1477 11.9849 14.155C11.5699 14.1623 11.1576 14.086 10.7728 13.9305C10.3879 13.7751 10.0383 13.5437 9.74476 13.2502C9.45125 12.9567 9.21987 12.6071 9.06441 12.2222C8.90896 11.8373 8.83261 11.4251 8.83993 11.0101C8.84726 10.595 8.9381 10.1858 9.10703 9.8066C9.20536 9.58592 9.32898 9.37808 9.47502 9.18709L6.82517 6.53725C5.29905 7.77249 4.02217 9.28798 3.06359 11.0027ZM10.1914 9.90352C10.1259 10.0016 10.0687 10.1053 10.0205 10.2136C9.90618 10.4701 9.84473 10.747 9.83978 11.0277C9.83483 11.3084 9.88647 11.5873 9.99163 11.8477C10.0968 12.108 10.2533 12.3445 10.4519 12.5431C10.6504 12.7416 10.8869 12.8982 11.1473 13.0033C11.4076 13.1085 11.6865 13.1601 11.9672 13.1552C12.248 13.1502 12.5249 13.0888 12.7814 12.9745C12.8896 12.9262 12.9933 12.869 13.0914 12.8035L10.1914 9.90352Z" fill="#182234"/>
<path fill-rule="evenodd" clip-rule="evenodd" d="M1.14144 0.146386C1.3367 -0.0488766 1.65329 -0.0488766 1.84855 0.146386L22.8485 21.1464C23.0438 21.3416 23.0438 21.6582 22.8485 21.8535C22.6533 22.0488 22.3367 22.0488 22.1414 21.8535L1.14144 0.853492C0.94618 0.65823 0.94618 0.341648 1.14144 0.146386Z" fill="#182234"/>
<path fill-rule="evenodd" clip-rule="evenodd" d="M14.9497 11.1941C14.6736 11.1892 14.4537 10.9614 14.4586 10.6853C14.4636 10.4046 14.4119 10.1257 14.3068 9.86536C14.2016 9.60501 14.0451 9.3685 13.8465 9.16995C13.648 8.9714 13.4115 8.81488 13.1511 8.70971C12.8908 8.60455 12.6119 8.55291 12.3311 8.55786C12.055 8.56273 11.8273 8.34286 11.8224 8.06676C11.8175 7.79066 12.0374 7.56289 12.3135 7.55802C12.7285 7.5507 13.1408 7.62704 13.5256 7.7825C13.9105 7.93795 14.2601 8.16934 14.5536 8.46284C14.8471 8.75635 15.0785 9.10597 15.234 9.49084C15.3894 9.87572 15.4658 10.288 15.4585 10.703C15.4536 10.9791 15.2258 11.1989 14.9497 11.1941Z" fill="#182234"/>
</svg>
