<svg width="19" height="18" viewBox="0 0 19 18" fill="none" xmlns="http://www.w3.org/2000/svg">
<path fill-rule="evenodd" clip-rule="evenodd" d="M6.5242 1C5.41963 1 4.5242 1.89543 4.5242 3C4.5242 4.10457 5.41963 5 6.5242 5C7.62877 5 8.5242 4.10457 8.5242 3C8.5242 1.89543 7.62877 1 6.5242 1ZM3.5242 3C3.5242 1.34315 4.86735 0 6.5242 0C8.18106 0 9.5242 1.34315 9.5242 3C9.5242 4.65685 8.18106 6 6.5242 6C4.86735 6 3.5242 4.65685 3.5242 3Z" fill="#161616"/>
<path fill-rule="evenodd" clip-rule="evenodd" d="M4.0242 3.5H1.0242C0.748058 3.5 0.524201 3.27614 0.524201 3C0.524201 2.72386 0.748058 2.5 1.0242 2.5H4.0242C4.30034 2.5 4.5242 2.72386 4.5242 3C4.5242 3.27614 4.30034 3.5 4.0242 3.5Z" fill="#161616"/>
<path fill-rule="evenodd" clip-rule="evenodd" d="M8.5242 3C8.5242 2.72386 8.74806 2.5 9.0242 2.5L18.0262 2.5C18.3023 2.5 18.5262 2.72386 18.5262 3C18.5262 3.27614 18.3023 3.5 18.0262 3.5L9.0242 3.5C8.74806 3.5 8.5242 3.27614 8.5242 3Z" fill="#161616"/>
<path fill-rule="evenodd" clip-rule="evenodd" d="M12.5262 7C13.6307 7 14.5262 7.89543 14.5262 9C14.5262 10.1046 13.6307 11 12.5262 11C11.4216 11 10.5262 10.1046 10.5262 9C10.5262 7.89543 11.4216 7 12.5262 7ZM15.5262 9C15.5262 7.34315 14.183 6 12.5262 6C10.8693 6 9.52616 7.34315 9.52616 9C9.52616 10.6569 10.8693 12 12.5262 12C14.183 12 15.5262 10.6569 15.5262 9Z" fill="#161616"/>
<path fill-rule="evenodd" clip-rule="evenodd" d="M15.0262 9.5H18.0262C18.3023 9.5 18.5262 9.27614 18.5262 9C18.5262 8.72386 18.3023 8.5 18.0262 8.5H15.0262C14.75 8.5 14.5262 8.72386 14.5262 9C14.5262 9.27614 14.75 9.5 15.0262 9.5Z" fill="#161616"/>
<path fill-rule="evenodd" clip-rule="evenodd" d="M10.5262 9C10.5262 8.72386 10.3023 8.5 10.0262 8.5L1.0242 8.5C0.748058 8.5 0.5242 8.72386 0.5242 9C0.5242 9.27614 0.748058 9.5 1.0242 9.5L10.0262 9.5C10.3023 9.5 10.5262 9.27614 10.5262 9Z" fill="#161616"/>
<path fill-rule="evenodd" clip-rule="evenodd" d="M6.5242 13C5.41963 13 4.5242 13.8954 4.5242 15C4.5242 16.1046 5.41963 17 6.5242 17C7.62877 17 8.5242 16.1046 8.5242 15C8.5242 13.8954 7.62877 13 6.5242 13ZM3.5242 15C3.5242 13.3431 4.86735 12 6.5242 12C8.18106 12 9.5242 13.3431 9.5242 15C9.5242 16.6569 8.18106 18 6.5242 18C4.86735 18 3.5242 16.6569 3.5242 15Z" fill="#161616"/>
<path fill-rule="evenodd" clip-rule="evenodd" d="M4.0242 15.5H1.0242C0.748058 15.5 0.524201 15.2761 0.524201 15C0.524201 14.7239 0.748058 14.5 1.0242 14.5H4.0242C4.30034 14.5 4.5242 14.7239 4.5242 15C4.5242 15.2761 4.30034 15.5 4.0242 15.5Z" fill="#161616"/>
<path fill-rule="evenodd" clip-rule="evenodd" d="M8.5242 15C8.5242 14.7239 8.74806 14.5 9.0242 14.5L18.0262 14.5C18.3023 14.5 18.5262 14.7239 18.5262 15C18.5262 15.2761 18.3023 15.5 18.0262 15.5L9.0242 15.5C8.74806 15.5 8.5242 15.2761 8.5242 15Z" fill="#161616"/>
</svg>
