<svg width="24" height="24" viewBox="0 0 24 24" fill="none" xmlns="http://www.w3.org/2000/svg">
<path d="M19.5676 5.17951C19.6696 5.28293 19.7269 5.423 19.7269 5.56902C19.7269 5.71504 19.6696 5.85511 19.5676 5.95853L18.4283 7.1105L16.9029 5.65197L18.0422 4.5C18.1446 4.39657 18.2835 4.33847 18.4283 4.33847C18.5731 4.33847 18.712 4.39657 18.8144 4.5L19.5676 5.17841V5.17951ZM18.4283 7.1105L16.9029 5.65197L8.68873 13.9497C8.62861 14.0104 8.58336 14.0844 8.55656 14.1659L7.29112 16.4911C7.27518 16.5397 7.27291 16.5918 7.28459 16.6416C7.29626 16.6913 7.3214 16.7369 7.35722 16.773C7.39303 16.8092 7.4381 16.8346 7.48738 16.8464C7.53666 16.8582 7.58822 16.8559 7.63629 16.8398L10 15.5417C10.0806 15.515 10.1539 15.4696 10.2141 15.4093L18.4283 7.1105Z" fill="black"/>
<path fill-rule="evenodd" clip-rule="evenodd" d="M4 18.3449C4 18.7838 4.17262 19.2048 4.47989 19.5152C4.78717 19.8256 5.20391 20 5.63846 20H17.6538C18.0884 20 18.5051 19.8256 18.8124 19.5152C19.1197 19.2048 19.2923 18.7838 19.2923 18.3449V11.7244C19.2923 11.578 19.2348 11.4377 19.1323 11.3342C19.0299 11.2308 18.891 11.1727 18.7461 11.1727C18.6013 11.1727 18.4624 11.2308 18.36 11.3342C18.2575 11.4377 18.2 11.578 18.2 11.7244V18.3449C18.2 18.4912 18.1425 18.6315 18.04 18.735C17.9376 18.8385 17.7987 18.8966 17.6538 18.8966H5.63846C5.49361 18.8966 5.3547 18.8385 5.25227 18.735C5.14985 18.6315 5.09231 18.4912 5.09231 18.3449V6.20727C5.09231 6.06095 5.14985 5.92062 5.25227 5.81716C5.3547 5.71369 5.49361 5.65556 5.63846 5.65556H12.7385C12.8833 5.65556 13.0222 5.59744 13.1246 5.49397C13.2271 5.39051 13.2846 5.25018 13.2846 5.10386C13.2846 4.95753 13.2271 4.8172 13.1246 4.71374C13.0222 4.61027 12.8833 4.55215 12.7385 4.55215H5.63846C5.20391 4.55215 4.78717 4.72653 4.47989 5.03692C4.17262 5.34732 4 5.76831 4 6.20727V18.3449Z" fill="black"/>
</svg>
