<svg width="20" height="16" viewBox="0 0 20 16" fill="none" xmlns="http://www.w3.org/2000/svg">
<path fill-rule="evenodd" clip-rule="evenodd" d="M1.06711 7.99994C1.07623 8.01637 1.08588 8.03363 1.09603 8.05169C1.19791 8.23281 1.35124 8.49388 1.55425 8.80822C1.9609 9.43787 2.56363 10.2761 3.34772 11.1125C4.92503 12.795 7.17703 14.409 10 14.409C12.823 14.409 15.075 12.795 16.6523 11.1125C17.4364 10.2761 18.0391 9.43787 18.4457 8.80822C18.6488 8.49388 18.8021 8.23281 18.904 8.05169C18.9141 8.03363 18.9238 8.01637 18.9329 7.99994C18.9238 7.98351 18.9141 7.96625 18.904 7.9482C18.8021 7.76708 18.6488 7.506 18.4457 7.19166C18.0391 6.56201 17.4364 5.72373 16.6523 4.88737C15.075 3.2049 12.823 1.59085 10 1.59085C7.17703 1.59085 4.92503 3.2049 3.34772 4.88737C2.56363 5.72373 1.9609 6.56201 1.55425 7.19166C1.35124 7.506 1.19791 7.76708 1.09603 7.9482C1.08588 7.96625 1.07623 7.98351 1.06711 7.99994ZM19.5 7.99994C19.9472 7.77634 19.947 7.77595 19.947 7.77595L19.946 7.77385L19.9434 7.76885L19.9346 7.75151C19.927 7.73673 19.916 7.71558 19.9017 7.68849C19.873 7.63431 19.8309 7.55633 19.7755 7.45794C19.6649 7.26122 19.5011 6.98252 19.2858 6.64913C18.8558 5.98333 18.217 5.09433 17.3818 4.20343C15.7205 2.43134 13.2225 0.590851 10 0.590851C6.77752 0.590851 4.27951 2.43134 2.61819 4.20343C1.78296 5.09433 1.14421 5.98333 0.714213 6.64913C0.498902 6.98252 0.335112 7.26122 0.224457 7.45794C0.169111 7.55633 0.127002 7.63431 0.0983334 7.68849C0.0839976 7.71558 0.0730177 7.73673 0.0654192 7.75151L0.056559 7.76885L0.0540356 7.77385L0.0532516 7.77541C0.0532516 7.77541 0.0527864 7.77634 0.5 7.99994L0.0527864 7.77634C-0.0175955 7.9171 -0.0175955 8.08278 0.0527864 8.22355L0.5 7.99994C0.0527864 8.22355 0.0527864 8.22355 0.0527864 8.22355L0.0532516 8.22448L0.0540356 8.22604L0.056559 8.23103L0.0654192 8.24837C0.0730177 8.26315 0.0839976 8.2843 0.0983334 8.31139C0.127002 8.36557 0.169111 8.44355 0.224457 8.54195C0.335112 8.73867 0.498902 9.01737 0.714213 9.35075C1.14421 10.0166 1.78296 10.9056 2.61819 11.7965C4.27951 13.5685 6.77752 15.409 10 15.409C13.2225 15.409 15.7205 13.5685 17.3818 11.7965C18.217 10.9056 18.8558 10.0166 19.2858 9.35075C19.5011 9.01737 19.6649 8.73867 19.7755 8.54195C19.8309 8.44355 19.873 8.36557 19.9017 8.31139C19.916 8.2843 19.927 8.26315 19.9346 8.24837L19.9434 8.23103L19.946 8.22604L19.9467 8.22448C19.9467 8.22448 19.9472 8.22355 19.5 7.99994ZM19.5 7.99994L19.9472 8.22355C20.0176 8.08278 20.0174 7.91671 19.947 7.77595L19.5 7.99994Z" fill="#182234"/>
<path fill-rule="evenodd" clip-rule="evenodd" d="M10 5.74994C8.75736 5.74994 7.75 6.7573 7.75 7.99994C7.75 9.24259 8.75736 10.2499 10 10.2499C11.2426 10.2499 12.25 9.24259 12.25 7.99994C12.25 6.7573 11.2426 5.74994 10 5.74994ZM6.75 7.99994C6.75 6.20502 8.20508 4.74994 10 4.74994C11.7949 4.74994 13.25 6.20502 13.25 7.99994C13.25 9.79487 11.7949 11.2499 10 11.2499C8.20508 11.2499 6.75 9.79487 6.75 7.99994Z" fill="#182234"/>
</svg>
