<svg width="24" height="24" viewBox="0 0 24 24" fill="none" xmlns="http://www.w3.org/2000/svg">
<path d="M12.9375 2.59861V8.15C12.9375 8.70228 13.3852 9.15 13.9375 9.15H19.4027M19.2118 8.85793L13.2312 2.79759C13.0433 2.60718 12.7869 2.5 12.5194 2.5C10.1796 2.5 7.8398 2.5 5.5 2.5C4.94771 2.5 4.5 2.94772 4.5 3.5C4.5 9.16667 4.5 14.8333 4.5 20.5C4.5 21.0523 4.94772 21.5 5.5 21.5C9.83333 21.5 14.1667 21.5 18.5 21.5C19.0523 21.5 19.5 21.0523 19.5 20.5C19.5 16.8534 19.5 13.2069 19.5 9.56034C19.5 9.29742 19.3964 9.04507 19.2118 8.85793Z" stroke="#161616" stroke-linecap="round"/>
</svg>
