<svg width="20" height="18" viewBox="0 0 20 18" fill="none" xmlns="http://www.w3.org/2000/svg">
<path d="M19.5 16.5C19.5 17.0523 19.0523 17.5 18.5 17.5C12.8333 17.5 7.16667 17.5 1.5 17.5C0.947715 17.5 0.5 17.0523 0.5 16.5C0.5 11.5 0.5 6.5 0.5 1.5C0.5 0.947715 0.947715 0.5 1.5 0.5C3.20552 0.5 4.91104 0.5 6.61656 0.5C6.94995 0.5 7.26142 0.666149 7.4471 0.943047L8.7529 2.89029C8.93858 3.16718 9.25005 3.33333 9.58344 3.33333C12.5556 3.33333 15.5278 3.33333 18.5 3.33333C19.0523 3.33333 19.5 3.78105 19.5 4.33333C19.5 8.38889 19.5 12.4444 19.5 16.5Z" stroke="#161616" stroke-linecap="round"/>
</svg>
