<svg width="20" height="20" viewBox="0 0 20 20" fill="none" xmlns="http://www.w3.org/2000/svg">
<path d="M1 14.8C1 14.5239 1.22386 14.3 1.5 14.3H8.05C8.32614 14.3 8.55 14.5239 8.55 14.8V18.5C8.55 18.7761 8.32614 19 8.05 19H1.5C1.22386 19 1 18.7761 1 18.5V14.8ZM11.45 1.5C11.45 1.22386 11.6739 1 11.95 1H18.5C18.7761 1 19 1.22386 19 1.5V5.2C19 5.47614 18.7761 5.7 18.5 5.7H11.95C11.6739 5.7 11.45 5.47614 11.45 5.2V1.5ZM11.45 9.1C11.45 8.82386 11.6739 8.6 11.95 8.6H18.5C18.7761 8.6 19 8.82386 19 9.1V18.5C19 18.7761 18.7761 19 18.5 19H11.95C11.6739 19 11.45 18.7761 11.45 18.5V9.1ZM1 1.5C1 1.22386 1.22386 1 1.5 1H8.05C8.32614 1 8.55 1.22386 8.55 1.5V10.9C8.55 11.1761 8.32614 11.4 8.05 11.4H1.5C1.22386 11.4 1 11.1761 1 10.9V1.5Z" stroke="black"/>
</svg>
