<svg width="18" height="20" viewBox="0 0 18 20" fill="none" xmlns="http://www.w3.org/2000/svg">
<path d="M12.6 8.8C12.6 9.75478 12.2207 10.6705 11.5456 11.3456C10.8705 12.0207 9.95479 12.4 9.00001 12.4C8.04523 12.4 7.12956 12.0207 6.45442 11.3456C5.77929 10.6705 5.40001 9.75478 5.40001 8.8C5.40001 7.84522 5.77929 6.92955 6.45442 6.25441C7.12956 5.57928 8.04523 5.2 9.00001 5.2C9.95479 5.2 10.8705 5.57928 11.5456 6.25441C12.2207 6.92955 12.6 7.84522 12.6 8.8ZM11.4 8.8C11.4 8.16348 11.1472 7.55303 10.6971 7.10294C10.247 6.65285 9.63653 6.4 9.00001 6.4C8.36349 6.4 7.75304 6.65285 7.30295 7.10294C6.85287 7.55303 6.60001 8.16348 6.60001 8.8C6.60001 9.43652 6.85287 10.047 7.30295 10.4971C7.75304 10.9471 8.36349 11.2 9.00001 11.2C9.63653 11.2 10.247 10.9471 10.6971 10.4971C11.1472 10.047 11.4 9.43652 11.4 8.8ZM14.94 14.746C16.5155 13.1697 17.4005 11.0323 17.4005 8.8036C17.4005 6.57494 16.5155 4.4375 14.94 2.8612C14.1601 2.08081 13.2342 1.46174 12.2149 1.03937C11.1957 0.616995 10.1033 0.399597 9.00001 0.399597C7.89674 0.399597 6.80429 0.616995 5.78508 1.03937C4.76587 1.46174 3.83987 2.08081 3.06001 2.8612C1.48452 4.4375 0.599487 6.57494 0.599487 8.8036C0.599487 11.0323 1.48452 13.1697 3.06001 14.746L4.88521 16.5448L7.33681 18.9268L7.49641 19.0684C8.42641 19.822 9.78841 19.774 10.6644 18.9268L13.5864 16.0828L14.94 14.746ZM3.90601 3.7072C4.57486 3.03805 5.36898 2.50724 6.24303 2.14509C7.11707 1.78293 8.05391 1.59653 9.00001 1.59653C9.94611 1.59653 10.8829 1.78293 11.757 2.14509C12.631 2.50724 13.4252 3.03805 14.094 3.7072C15.4077 5.02174 16.163 6.79278 16.2023 8.65078C16.2417 10.5088 15.562 12.3102 14.3052 13.6792L14.094 13.9L12.5088 15.4648L9.83281 18.0664L9.72001 18.1624C9.51253 18.3187 9.2598 18.4033 9.00001 18.4033C8.74022 18.4033 8.48749 18.3187 8.28001 18.1624L8.16841 18.0664L4.59241 14.5804L3.90601 13.9L3.69481 13.6804C2.43799 12.3114 1.75834 10.51 1.79769 8.65198C1.83705 6.79398 2.59235 5.02294 3.90601 3.7084V3.7072Z" fill="black"/>
</svg>
