<svg width="20" height="20" viewBox="0 0 20 20" fill="none" xmlns="http://www.w3.org/2000/svg">
<path d="M4.61351 7.639L1.82151 8.942C1.62352 9.03426 1.45597 9.18112 1.33856 9.36532C1.22114 9.54951 1.15874 9.7634 1.15869 9.98184C1.15864 10.2003 1.22093 10.4142 1.33826 10.5984C1.45558 10.7827 1.62306 10.9296 1.82101 11.022L8.81851 14.292C9.1986 14.4697 9.61305 14.5619 10.0327 14.5621C10.4522 14.5623 10.8668 14.4704 11.247 14.293L18.1785 11.058C18.3764 10.9657 18.5438 10.8188 18.6611 10.6347C18.7784 10.4505 18.8407 10.2367 18.8408 10.0184C18.8409 9.80007 18.7786 9.58625 18.6614 9.40205C18.5442 9.21785 18.3768 9.07091 18.179 8.9785L15.3865 7.6735M4.61351 12.327L1.82151 13.63C1.62352 13.7223 1.45597 13.8691 1.33856 14.0533C1.22114 14.2375 1.15874 14.4514 1.15869 14.6698C1.15864 14.8883 1.22093 15.1022 1.33826 15.2864C1.45558 15.4707 1.62306 15.6176 1.82101 15.71L8.81851 18.98C9.19864 19.1577 9.61311 19.2498 10.0327 19.2499C10.4523 19.25 10.8668 19.158 11.247 18.9805L18.1785 15.7455C18.3764 15.6532 18.5438 15.5063 18.6611 15.3222C18.7784 15.138 18.8407 14.9242 18.8408 14.7059C18.8409 14.4876 18.7786 14.2737 18.6614 14.0895C18.5442 13.9053 18.3768 13.7584 18.179 13.666L15.3865 12.361M18.179 4.2905L11.1815 1.02C10.8014 0.842331 10.3869 0.750209 9.96732 0.750122C9.54772 0.750036 9.13321 0.841988 8.75301 1.0195L1.82151 4.2545C1.62366 4.34682 1.45624 4.49367 1.33893 4.67782C1.22162 4.86196 1.15928 5.07575 1.15923 5.29409C1.15917 5.51242 1.22141 5.72624 1.33864 5.91044C1.45586 6.09464 1.6232 6.24158 1.82101 6.334L8.81851 9.6045C9.1986 9.78224 9.61305 9.87445 10.0327 9.87462C10.4522 9.87479 10.8668 9.78293 11.247 9.6055L18.1785 6.37C18.3764 6.27767 18.5438 6.13082 18.6611 5.94668C18.7784 5.76253 18.8407 5.54874 18.8408 5.3304C18.8409 5.11207 18.7786 4.89825 18.6614 4.71405C18.5442 4.52985 18.3768 4.38291 18.179 4.2905Z" stroke="black" stroke-linecap="round" stroke-linejoin="round"/>
</svg>
