<svg width="24" height="12" viewBox="0 0 24 12" fill="none" xmlns="http://www.w3.org/2000/svg">
<path d="M12 0.248322C5.64703 0.248322 0.496948 2.82336 0.496948 6C0.496948 9.17664 5.64735 11.7517 12 11.7517C18.3526 11.7517 23.503 9.17664 23.503 6C23.503 2.82336 18.3529 0.248322 12 0.248322Z" fill="#FFCD19"/>
<path d="M10.327 4.96768H11.7632V7.91712H12.7206V4.96768H14.1568V4.08288L10.3226 4.08896L10.327 4.96768Z" fill="#161616"/>
<path d="M17.5133 4.08896V6.376L15.599 4.08288L14.6362 4.08896V7.9184L15.599 7.91712V5.55744L17.5133 7.91712L18.4704 7.9184V4.08896H17.5133Z" fill="#161616"/>
<path d="M7.6864 5.70496L6.45376 4.08288H5.5296L5.5328 7.9184L6.45376 7.91712V5.55744L7.37824 6.73728H7.99456L8.91872 5.55744V7.91712L9.84 7.9184L9.8432 4.08288H8.91872L7.6864 5.70496Z" fill="#161616"/>
</svg>
