<svg width="18" height="18" viewBox="0 0 18 18" fill="none" xmlns="http://www.w3.org/2000/svg">
<path fill-rule="evenodd" clip-rule="evenodd" d="M3.57649 1.3105C4.80349 0.71 6.81649 0 9.01949 0C11.1765 0 13.1365 0.6805 14.357 1.273L14.426 1.3065C14.794 1.4885 15.091 1.6605 15.3 1.8L13.453 4.5C17.711 8.853 21 17.9985 9.01949 17.9985C-2.96101 17.9985 0.23949 9.019 4.53449 4.5L2.69949 1.8C2.84099 1.7075 3.02049 1.6 3.23449 1.486C3.34049 1.429 3.45449 1.3705 3.57649 1.311V1.3105ZM12.266 4.464L13.7445 2.3025C12.3695 2.4015 10.7335 2.7245 9.15849 3.1805C8.03349 3.5055 6.78349 3.456 5.62599 3.2425C5.33431 3.18842 5.04462 3.12405 4.75749 3.0495L5.71749 4.463C7.77499 5.1955 10.208 5.1955 12.266 4.464ZM5.13999 5.315C7.54749 6.245 10.441 6.245 12.8485 5.314C13.8534 6.37335 14.6941 7.57719 15.3425 8.8855C16.0185 10.2645 16.3865 11.643 16.3265 12.831C16.2685 13.9775 15.8175 14.957 14.7875 15.685C13.714 16.4435 11.9085 16.9985 9.01899 16.9985C6.12649 16.9985 4.31249 16.453 3.22899 15.703C2.19149 14.984 1.73599 14.018 1.67149 12.887C1.60399 11.712 1.96399 10.3405 2.63749 8.952C3.27999 7.628 4.17649 6.3535 5.13999 5.315ZM4.56499 1.958C4.96499 2.077 5.38299 2.1805 5.80699 2.259C6.88199 2.457 7.95999 2.486 8.87999 2.2195C9.9521 1.90717 11.0425 1.66154 12.145 1.484C11.225 1.207 10.149 1 9.01899 1C7.29649 1 5.68999 1.4805 4.56499 1.958Z" fill="black"/>
</svg>
