<svg width="24" height="24" viewBox="0 0 24 24" fill="none" xmlns="http://www.w3.org/2000/svg">
<path d="M12 16.8669C5.65535 16.8669 1.39327 14.3504 1.39327 12C1.39327 9.6496 5.65535 7.13344 12 7.13344C18.3446 7.13344 22.6067 9.6496 22.6067 12C22.6067 14.3504 18.3446 16.8669 12 16.8669ZM12 6.24832C5.64703 6.24832 0.496948 8.82336 0.496948 12C0.496948 15.1766 5.64735 17.7517 12 17.7517C18.3526 17.7517 23.503 15.1766 23.503 12C23.503 8.82336 18.3529 6.24832 12 6.24832Z" fill="#161616"/>
<path d="M10.327 10.9677H11.7632V13.9171H12.7206V10.9677H14.1568V10.0829L10.3225 10.089L10.327 10.9677Z" fill="#161616"/>
<path d="M17.5133 10.089V12.376L15.599 10.0829L14.6361 10.089V13.9184L15.599 13.9171V11.5574L17.5133 13.9171L18.4704 13.9184V10.089H17.5133Z" fill="#161616"/>
<path d="M7.6864 11.705L6.45376 10.0829H5.5296L5.5328 13.9184L6.45376 13.9171V11.5574L7.37824 12.7373H7.99456L8.91872 11.5574V13.9171L9.84 13.9184L9.8432 10.0829H8.91872L7.6864 11.705Z" fill="#161616"/>
</svg>
