<svg width="24" height="24" viewBox="0 0 24 24" fill="none" xmlns="http://www.w3.org/2000/svg">
<path d="M0 1C0 0.447715 0.447715 0 1 0H22.9715C23.5238 0 23.9715 0.447734 23.9715 1.00003C23.9714 8.32386 23.9717 15.6477 23.9714 22.9715C23.9713 23.5237 23.5237 23.9714 22.9714 23.9714C15.6478 23.9718 8.3237 23.9714 1.00003 23.9716C0.447733 23.9716 0 23.5239 0 22.9716V1ZM12.6085 18.559C12.3761 18.6069 12.1652 18.7159 11.9673 18.8441C11.8702 18.907 11.7368 18.8553 11.7137 18.742V18.742C11.6967 18.6585 11.6182 18.6014 11.5338 18.613C11.4557 18.6237 11.3776 18.6344 11.2994 18.6452C11.0994 18.6729 10.9506 18.8439 10.9506 19.0458C10.9503 19.865 10.9506 20.684 10.9507 21.5029C10.9507 21.7453 11.147 21.9418 11.3894 21.9418V21.9418C11.6319 21.9417 11.8286 21.7451 11.8286 21.5026C11.8286 21.0074 11.8286 20.5123 11.8286 20.0172C11.8286 19.7199 11.9498 19.4169 12.217 19.2865C12.3207 19.2359 12.4304 19.1992 12.5467 19.1847C12.6844 19.1694 12.8462 19.1776 12.9467 19.2864C13.026 19.3789 13.055 19.5939 13.0635 19.6762C13.0657 19.6981 13.0664 19.72 13.0664 19.742C13.0668 20.3283 13.0667 20.9144 13.0666 21.5005C13.0666 21.7443 13.264 21.942 13.5078 21.9419V21.9419C13.7519 21.9418 13.9497 21.7438 13.9497 21.4998C13.9497 20.8554 13.9497 20.211 13.9497 19.5666C13.9462 19.4077 13.9245 19.2476 13.8696 19.0981C13.7981 18.897 13.6499 18.7231 13.4542 18.6348C13.1913 18.5156 12.8885 18.506 12.6085 18.559Z" fill="#FF6600"/>
<path d="M19.2645 19.3248C19.3714 19.2042 19.5307 19.1393 19.6897 19.1297C19.8926 19.1146 20.114 19.1714 20.2525 19.3285C20.3749 19.4645 20.4157 19.6525 20.4204 19.8308C19.9712 19.8306 19.522 19.8313 19.0728 19.8303C19.0874 19.6493 19.1403 19.4625 19.2645 19.3248Z" fill="#FF6600"/>
<path d="M15.9793 19.1677C16.1861 19.1297 16.4112 19.1961 16.5576 19.3488C16.7298 19.5244 16.7998 19.7743 16.8147 20.0144C16.8216 20.1903 16.8142 20.3674 16.7862 20.5414C16.7548 20.7247 16.6929 20.9122 16.5604 21.0476C16.4397 21.1702 16.264 21.2262 16.0946 21.222C15.9368 21.227 15.7705 21.1769 15.6612 21.0582C15.5143 20.907 15.4655 20.6914 15.4418 20.4886C15.4225 20.2821 15.4168 20.0731 15.444 19.8671C15.4697 19.686 15.5259 19.502 15.6471 19.3609C15.7315 19.2609 15.8504 19.1911 15.9793 19.1677Z" fill="#FF6600"/>
<path d="M2.8093 19.2738C3.02351 19.2419 3.26321 19.2772 3.43092 19.424C3.58849 19.5594 3.66517 19.764 3.69955 19.9638C3.73591 20.1886 3.73443 20.42 3.69065 20.6432C3.65057 20.8394 3.56301 21.0372 3.39975 21.1608C3.21769 21.296 2.97355 21.3202 2.75636 21.2756C2.579 21.2395 2.42144 21.1243 2.3309 20.9679C2.20029 20.7414 2.1716 20.4725 2.17704 20.2155C2.18545 19.9845 2.22627 19.7442 2.35811 19.5493C2.46027 19.3979 2.62848 19.2974 2.8093 19.2738Z" fill="#FF6600"/>
<path d="M8.59458 20.4284C8.84491 20.325 9.11478 20.2791 9.38218 20.2453C9.38317 20.5058 9.38168 20.7666 9.38292 21.0274C9.1593 21.2277 8.8741 21.3851 8.56663 21.3794C8.46348 21.3822 8.36132 21.3382 8.29107 21.2635C8.15724 21.1132 8.13795 20.8754 8.24159 20.7037C8.31877 20.5707 8.45704 20.4881 8.59458 20.4284Z" fill="#FF6600"/>
<path d="M20.7551 17.3388C21.0475 17.3398 21.3399 17.3388 21.6323 17.3393C21.632 17.3901 21.632 17.4407 21.6323 17.4915C21.5175 17.4913 21.4022 17.4915 21.2874 17.4915C21.2869 17.8095 21.2872 18.1276 21.2872 18.4456C21.2246 18.4453 21.162 18.4453 21.0994 18.4458C21.099 18.1276 21.0997 17.8095 21.099 17.4915C20.9844 17.4915 20.8694 17.491 20.7549 17.4918C20.7539 17.4407 20.7541 17.3896 20.7551 17.3388Z" fill="white"/>
<path d="M21.8509 17.3391C21.9462 17.3391 22.0419 17.3393 22.1376 17.3391C22.2455 17.6161 22.3553 17.8924 22.4631 18.1695C22.5703 17.8929 22.6781 17.6166 22.7837 17.3396C22.8785 17.3391 22.9735 17.3388 23.0684 17.3396C23.0677 17.7084 23.0697 18.0772 23.0675 18.4461C23.0051 18.4453 22.9428 18.4453 22.8807 18.4456C22.88 18.1421 22.8817 17.8387 22.8795 17.5354C22.7555 17.8369 22.6405 18.1421 22.5198 18.4451C22.479 18.4451 22.4387 18.4451 22.3986 18.4448C22.2789 18.1431 22.1656 17.8387 22.0402 17.5391C22.0362 17.8414 22.0394 18.1433 22.0382 18.4456C21.9756 18.4456 21.9133 18.4456 21.8509 18.4456C21.8502 18.0767 21.8502 17.7079 21.8509 17.3391Z" fill="white"/>
<path d="M2.8454 18.5186C3.22881 18.4981 3.62583 18.5869 3.9422 18.8109C4.21554 19.0021 4.41219 19.2915 4.50915 19.6093C4.61255 19.9483 4.62591 20.3114 4.57569 20.661C4.52919 20.962 4.41516 21.2576 4.21826 21.4927C4.00008 21.7584 3.68297 21.9336 3.34804 22.0024C2.98689 22.0766 2.60249 22.0517 2.25965 21.9128C1.97518 21.7979 1.72782 21.5931 1.56629 21.3321C1.36692 21.0131 1.29172 20.6297 1.2989 20.2574C1.29692 19.8619 1.3924 19.4534 1.63135 19.1319C1.90914 18.7483 2.37888 18.5373 2.8454 18.5186ZM2.80929 19.2738C2.62846 19.2975 2.46026 19.3979 2.3581 19.5493C2.22625 19.7442 2.18544 19.9845 2.17703 20.2155C2.17159 20.4725 2.20028 20.7415 2.33089 20.9679C2.42142 21.1243 2.57899 21.2396 2.75635 21.2756C2.97353 21.3202 3.21768 21.2961 3.39974 21.1609C3.563 21.0373 3.65056 20.8394 3.69063 20.6433C3.73442 20.42 3.7359 20.1886 3.69954 19.9638C3.66516 19.764 3.58847 19.5595 3.43091 19.424C3.26319 19.2772 3.0235 19.2419 2.80929 19.2738Z" fill="white"/>
<path d="M6.03834 18.9906C6.29065 18.6972 6.68223 18.5038 7.07405 18.5403C7.07355 18.8164 7.0738 19.0927 7.0738 19.369C6.8252 19.3712 6.56597 19.3806 6.33716 19.4892C6.23747 19.5407 6.13754 19.6194 6.10093 19.7282C6.09746 20.4676 6.10068 21.2075 6.0992 21.9471C5.79989 21.9464 5.50058 21.9476 5.20127 21.9464C5.20078 20.8322 5.20202 19.7181 5.20053 18.604C5.4798 18.6015 5.75907 18.603 6.03834 18.603C6.03884 18.732 6.03884 18.8613 6.03834 18.9906Z" fill="white"/>
<path d="M8.23589 18.6308C8.57774 18.5218 8.94532 18.5129 9.29855 18.5635C9.59564 18.6108 9.9041 18.7283 10.0904 18.9762C10.2336 19.1595 10.2766 19.4006 10.261 19.6283C10.262 20.401 10.2558 21.1742 10.2655 21.9469C10.0035 21.9469 9.74158 21.9466 9.47962 21.9469C9.4539 21.8502 9.42842 21.7539 9.40294 21.6575C9.17364 21.8077 8.9144 21.9131 8.64379 21.9582C8.37243 22.0014 8.08129 22.0078 7.82675 21.8896C7.60462 21.7902 7.43196 21.5919 7.36023 21.3597C7.27192 21.0782 7.288 20.7533 7.44656 20.4992C7.58854 20.2727 7.82304 20.1234 8.06348 20.0193C8.48943 19.8385 8.95076 19.7635 9.40789 19.7097C9.40418 19.5728 9.43287 19.4151 9.33442 19.3024C9.1954 19.1447 8.96214 19.1349 8.76747 19.1516C8.49537 19.1731 8.24381 19.3184 8.07362 19.5291C7.874 19.4161 7.67388 19.3036 7.47575 19.1879C7.65929 18.9254 7.93114 18.728 8.23589 18.6308ZM8.59456 20.4284C8.45703 20.4881 8.31876 20.5707 8.24158 20.7037C8.13793 20.8754 8.15723 21.1132 8.29105 21.2635C8.3613 21.3382 8.46346 21.3821 8.56661 21.3794C8.87408 21.3851 9.15929 21.2277 9.3829 21.0274C9.38167 20.7666 9.38315 20.5058 9.38216 20.2453C9.11476 20.2791 8.84489 20.325 8.59456 20.4284Z" fill="white"/>
<path d="M12.6085 18.559C12.8885 18.506 13.1913 18.5156 13.4542 18.6348C13.6499 18.7231 13.7981 18.897 13.8696 19.0981C13.9245 19.2476 13.9462 19.4077 13.9497 19.5666C13.9497 20.3583 13.9497 21.15 13.9497 21.9417C13.6553 21.9417 13.361 21.9422 13.0666 21.9417C13.0666 21.1974 13.0669 20.4533 13.0664 19.709C13.0617 19.5627 13.0458 19.4021 12.9466 19.2863C12.8462 19.1775 12.6844 19.1694 12.5467 19.1847C12.2731 19.2187 12.0359 19.3757 11.8286 19.5479C11.8286 20.3457 11.8286 21.1436 11.8286 21.9417C11.5357 21.9417 11.2433 21.9419 10.9507 21.9417C10.9507 20.8591 10.9502 19.7766 10.9507 18.6937C11.1953 18.6595 11.4402 18.6257 11.6849 18.5923C11.7081 18.7234 11.7378 18.8536 11.7635 18.9844C12.0198 18.7998 12.2946 18.6237 12.6085 18.559Z" fill="white"/>
<path d="M14.9028 19.0456C15.1093 18.7611 15.4368 18.5615 15.7901 18.5349C16.0174 18.5218 16.2511 18.5423 16.4631 18.6289C16.6244 18.694 16.7748 18.8048 16.852 18.9644C16.8735 18.8413 16.8977 18.7187 16.917 18.5956C17.1659 18.5892 17.415 18.5943 17.6641 18.5929C17.6641 19.6956 17.6641 20.7982 17.6641 21.901C17.6589 22.2262 17.5866 22.5725 17.3559 22.8158C17.0984 23.0869 16.7169 23.1896 16.3558 23.2256C15.9392 23.2655 15.4952 23.2426 15.1217 23.0354C14.8825 22.9056 14.6935 22.6762 14.6408 22.4058C14.9312 22.3591 15.2214 22.3123 15.5118 22.2656C15.5345 22.351 15.5741 22.4378 15.6513 22.4874C15.8061 22.5878 15.9993 22.594 16.1782 22.5915C16.3484 22.591 16.5319 22.5449 16.6496 22.4144C16.7788 22.2698 16.806 22.067 16.8117 21.8808C16.8102 21.7401 16.8151 21.5993 16.8082 21.4586C16.7199 21.6015 16.6148 21.7411 16.4654 21.8243C16.2504 21.9464 15.9934 21.9565 15.753 21.9336C15.4235 21.899 15.1046 21.7367 14.9001 21.4734C14.6421 21.1498 14.5518 20.7247 14.5481 20.3186C14.5394 19.8735 14.6336 19.409 14.9028 19.0456ZM15.9793 19.1677C15.8504 19.1911 15.7314 19.2609 15.6471 19.3609C15.5259 19.502 15.4697 19.686 15.444 19.8671C15.4168 20.0731 15.4225 20.2821 15.4418 20.4886C15.4655 20.6914 15.5143 20.907 15.6612 21.0582C15.7705 21.1769 15.9367 21.227 16.0946 21.222C16.264 21.2262 16.4396 21.1702 16.5603 21.0476C16.6929 20.9122 16.7548 20.7247 16.7862 20.5414C16.8141 20.3674 16.8216 20.1903 16.8146 20.0144C16.7998 19.7743 16.7298 19.5244 16.5576 19.3488C16.4112 19.1961 16.1861 19.1297 15.9793 19.1677Z" fill="white"/>
<path d="M18.5751 19.0204C18.8005 18.7468 19.1408 18.5864 19.4894 18.5445C19.8787 18.4988 20.2977 18.5457 20.6332 18.7623C20.9067 18.9358 21.0962 19.22 21.1895 19.5269C21.2743 19.8099 21.3025 20.1099 21.2775 20.4042C20.5379 20.4039 19.7986 20.4044 19.0595 20.4039C19.0609 20.6277 19.0946 20.8621 19.217 21.054C19.3162 21.2102 19.4881 21.3101 19.6699 21.3365C19.8577 21.3636 20.0583 21.3525 20.2302 21.2652C20.3828 21.1885 20.5006 21.059 20.5973 20.9206C20.8128 21.041 21.0289 21.1609 21.2454 21.2795C21.047 21.6318 20.6802 21.8655 20.2903 21.9506C19.8921 22.0347 19.4631 22.0362 19.081 21.8825C18.7834 21.7646 18.5375 21.5309 18.3943 21.2457C18.2095 20.8798 18.1717 20.459 18.1976 20.0553C18.2246 19.6855 18.3327 19.3083 18.5751 19.0204ZM19.2645 19.3248C19.1403 19.4625 19.0874 19.6493 19.0728 19.8303C19.522 19.8313 19.9712 19.8306 20.4204 19.8308C20.4157 19.6525 20.3749 19.4645 20.2525 19.3285C20.114 19.1714 19.8926 19.1146 19.6897 19.1297C19.5307 19.1393 19.3714 19.2042 19.2645 19.3248Z" fill="white"/>
</svg>
