<svg width="12" height="20" viewBox="0 0 12 20" fill="none" xmlns="http://www.w3.org/2000/svg">
<path fill-rule="evenodd" clip-rule="evenodd" d="M0 1.5C0 0.671572 0.671573 0 1.5 0H10.5C11.3284 0 12 0.671573 12 1.5V18.5C12 19.3284 11.3284 20 10.5 20H1.5C0.671572 20 0 19.3284 0 18.5V1.5ZM1.5 1C1.22386 1 1 1.22386 1 1.5V18.5C1 18.7761 1.22386 19 1.5 19H10.5C10.7761 19 11 18.7761 11 18.5V1.5C11 1.22386 10.7761 1 10.5 1H1.5Z" fill="#161616"/>
<path d="M7 16C7 16.5523 6.55228 17 6 17C5.44772 17 5 16.5523 5 16C5 15.4477 5.44772 15 6 15C6.55228 15 7 15.4477 7 16Z" fill="#161616"/>
</svg>
