<svg width="20" height="22" viewBox="0 0 20 22" fill="none" xmlns="http://www.w3.org/2000/svg">
<path d="M0.292008 7.85961C0.735049 6.4906 1.46302 5.23096 2.42801 4.16361C2.5078 4.07542 2.61201 4.01294 2.72738 3.9841C2.84276 3.95525 2.9641 3.96135 3.07601 4.00161L5.37761 4.82481C5.54146 4.88332 5.71607 4.90549 5.88935 4.88981C6.06262 4.87412 6.23042 4.82094 6.3811 4.73396C6.53177 4.64698 6.66174 4.52827 6.76198 4.38606C6.86222 4.24386 6.93033 4.08156 6.96161 3.91041L7.40081 1.50321C7.42202 1.38602 7.47762 1.27781 7.56054 1.19233C7.64345 1.10685 7.74993 1.04798 7.86641 1.02321C9.27263 0.723669 10.7262 0.723669 12.1324 1.02321C12.2487 1.04819 12.3549 1.10715 12.4376 1.19262C12.5203 1.27808 12.5757 1.38618 12.5968 1.50321L13.0372 3.91041C13.0685 4.08156 13.1366 4.24386 13.2368 4.38606C13.3371 4.52827 13.467 4.64698 13.6177 4.73396C13.7684 4.82094 13.9362 4.87412 14.1095 4.88981C14.2827 4.90549 14.4574 4.88332 14.6212 4.82481L16.9228 4.00161C17.0348 3.96149 17.1562 3.95559 17.2716 3.98465C17.387 4.01371 17.4912 4.07642 17.5708 4.16481C18.5356 5.23181 19.2636 6.49103 19.7068 7.85961C19.7434 7.97265 19.7456 8.09401 19.7131 8.20831C19.6806 8.3226 19.615 8.42468 19.5244 8.50161L17.6584 10.0856C17.5259 10.1983 17.4194 10.3384 17.3463 10.4963C17.2733 10.6542 17.2355 10.826 17.2355 11C17.2355 11.174 17.2733 11.3458 17.3463 11.5037C17.4194 11.6616 17.5259 11.8018 17.6584 11.9144L19.5244 13.4984C19.615 13.5753 19.6806 13.6774 19.7131 13.7917C19.7456 13.906 19.7434 14.0274 19.7068 14.1404C19.2638 15.5094 18.5358 16.769 17.5708 17.8364C17.491 17.9246 17.3868 17.9871 17.2714 18.0159C17.1561 18.0448 17.0347 18.0387 16.9228 17.9984L14.6212 17.1752C14.4574 17.1167 14.2827 17.0945 14.1095 17.1102C13.9362 17.1259 13.7684 17.1791 13.6177 17.2661C13.467 17.353 13.3371 17.4717 13.2368 17.6139C13.1366 17.7562 13.0685 17.9185 13.0372 18.0896L12.5968 20.498C12.5755 20.6148 12.5199 20.7227 12.4373 20.8079C12.3546 20.8931 12.2485 20.9519 12.1324 20.9768C10.7262 21.2764 9.27263 21.2764 7.86641 20.9768C7.74993 20.952 7.64345 20.8932 7.56054 20.8077C7.47762 20.7222 7.42202 20.614 7.40081 20.4968L6.96281 18.0896C6.93153 17.9185 6.86342 17.7562 6.76318 17.6139C6.66294 17.4717 6.53297 17.353 6.3823 17.2661C6.23162 17.1791 6.06382 17.1259 5.89055 17.1102C5.71727 17.0945 5.54266 17.1167 5.37881 17.1752L3.07601 17.9984C2.96399 18.0385 2.84257 18.0444 2.72719 18.0154C2.6118 17.9863 2.50766 17.9236 2.42801 17.8352C1.46314 16.7682 0.735169 15.509 0.292008 14.1404C0.255565 14.0272 0.253561 13.9058 0.286249 13.7915C0.318937 13.6772 0.384845 13.5752 0.475608 13.4984L2.34041 11.9144C2.47297 11.8018 2.57945 11.6616 2.65247 11.5037C2.72549 11.3458 2.76332 11.174 2.76332 11C2.76332 10.826 2.72549 10.6542 2.65247 10.4963C2.57945 10.3384 2.47297 10.1983 2.34041 10.0856L0.475608 8.50161C0.384845 8.42482 0.318937 8.32281 0.286249 8.20851C0.253561 8.0942 0.255565 7.97277 0.292008 7.85961ZM1.56521 7.85241L3.11801 9.17001C3.38354 9.39531 3.59685 9.67569 3.74315 9.9917C3.88946 10.3077 3.96524 10.6518 3.96524 11C3.96524 11.3482 3.88946 11.6923 3.74315 12.0083C3.59685 12.3243 3.38354 12.6047 3.11801 12.83L1.56401 14.1476C1.91467 15.0856 2.41962 15.9584 3.05801 16.73L4.97321 16.046C5.30099 15.929 5.65031 15.8847 5.99693 15.9161C6.34355 15.9476 6.67919 16.054 6.98057 16.2281C7.28194 16.4022 7.54185 16.6398 7.74227 16.9243C7.94268 17.2089 8.07881 17.5336 8.14121 17.876L8.50721 19.8776C9.4944 20.0422 10.502 20.0422 11.4892 19.8776L11.8552 17.8736C11.9174 17.5311 12.0534 17.2063 12.2538 16.9216C12.4542 16.637 12.7141 16.3994 13.0156 16.2254C13.3171 16.0513 13.6528 15.945 13.9995 15.9139C14.3462 15.8827 14.6955 15.9274 15.0232 16.0448L16.9396 16.73C17.578 15.9584 18.0829 15.0856 18.4336 14.1476L16.8808 12.83C16.6149 12.6049 16.4013 12.3246 16.2547 12.0086C16.1082 11.6925 16.0323 11.3484 16.0323 11C16.0323 10.6516 16.1082 10.3075 16.2547 9.99143C16.4013 9.67539 16.6149 9.39508 16.8808 9.17001L18.4336 7.85241C18.0829 6.9144 17.578 6.04158 16.9396 5.27001L15.0244 5.95401C14.6967 6.07102 14.3475 6.11538 14.0009 6.08401C13.6544 6.05264 13.3188 5.94628 13.0174 5.77232C12.7161 5.59835 12.4562 5.36093 12.2557 5.07652C12.0552 4.79211 11.919 4.46751 11.8564 4.12521L11.4892 2.12241C10.502 1.95781 9.49439 1.95781 8.50721 2.12241L8.14241 4.12521C8.08004 4.46776 7.94389 4.79263 7.7434 5.0773C7.5429 5.36196 7.28288 5.59959 6.98135 5.7737C6.67983 5.94781 6.34403 6.05423 5.99727 6.08557C5.6505 6.11691 5.30106 6.07243 4.97321 5.95521L3.05801 5.27001C2.41964 6.04158 1.91469 6.9144 1.56401 7.85241H1.56521ZM7.00001 11C7.00001 10.2044 7.31608 9.44129 7.87869 8.87869C8.4413 8.31608 9.20436 8.00001 10 8.00001C10.7957 8.00001 11.5587 8.31608 12.1213 8.87869C12.6839 9.44129 13 10.2044 13 11C13 11.7957 12.6839 12.5587 12.1213 13.1213C11.5587 13.6839 10.7957 14 10 14C9.20436 14 8.4413 13.6839 7.87869 13.1213C7.31608 12.5587 7.00001 11.7957 7.00001 11ZM8.20001 11C8.20001 11.4774 8.38965 11.9352 8.72722 12.2728C9.06478 12.6104 9.52262 12.8 10 12.8C10.4774 12.8 10.9352 12.6104 11.2728 12.2728C11.6104 11.9352 11.8 11.4774 11.8 11C11.8 10.5226 11.6104 10.0648 11.2728 9.72721C10.9352 9.38965 10.4774 9.20001 10 9.20001C9.52262 9.20001 9.06478 9.38965 8.72722 9.72721C8.38965 10.0648 8.20001 10.5226 8.20001 11Z" fill="black"/>
</svg>
