<svg width="18" height="15" viewBox="0 0 18 15" fill="none" xmlns="http://www.w3.org/2000/svg">
<path d="M0.375 1.375C0.375 0.960786 0.710786 0.625 1.125 0.625H16.875C17.2892 0.625 17.625 0.960786 17.625 1.375C17.625 1.78921 17.2892 2.125 16.875 2.125H1.125C0.710786 2.125 0.375 1.78921 0.375 1.375Z" fill="#586A74"/>
<path d="M0.375 7.375C0.375 6.96079 0.710786 6.625 1.125 6.625H16.875C17.2892 6.625 17.625 6.96079 17.625 7.375C17.625 7.78921 17.2892 8.125 16.875 8.125H1.125C0.710786 8.125 0.375 7.78921 0.375 7.375Z" fill="#586A74"/>
<path d="M0.375 13.375C0.375 12.9608 0.710786 12.625 1.125 12.625H16.875C17.2892 12.625 17.625 12.9608 17.625 13.375C17.625 13.7892 17.2892 14.125 16.875 14.125H1.125C0.710786 14.125 0.375 13.7892 0.375 13.375Z" fill="#586A74"/>
</svg>
