<svg width="22" height="20" viewBox="0 0 22 20" fill="none" xmlns="http://www.w3.org/2000/svg">
<path d="M11.1004 11.1257L11.099 11.6257H11.1004V11.1257ZM8.05048 6.8821C7.93547 7.13315 8.04575 7.4299 8.2968 7.54492C8.54785 7.65993 8.8446 7.54965 8.95962 7.2986L8.05048 6.8821ZM11.3738 11.1126L11.3262 10.6148H11.3262L11.3738 11.1126ZM11.0987 11.1257L11.0867 10.6258L11.0973 11.6257L11.0987 11.1257ZM16.1004 7.12567L16.099 7.62567H16.1004V7.12567ZM13.0505 2.8821C12.9355 3.13315 13.0457 3.4299 13.2968 3.54492C13.5478 3.65993 13.8446 3.54965 13.9596 3.2986L13.0505 2.8821ZM16.3738 7.11257L16.3262 6.61485H16.3262L16.3738 7.11257ZM16.0987 7.12567L16.0867 6.62581L16.0973 7.62566L16.0987 7.12567ZM11.1004 11.6257C13.1338 11.6257 15.4885 13.2182 15.5 16.5761L16.5 16.5726C16.4865 12.6364 13.657 10.6257 11.1004 10.6257V11.6257ZM11.0987 5.92566C12.3975 5.92566 13.45 6.97799 13.45 8.27566H14.45C14.45 6.4253 12.9494 4.92566 11.0987 4.92566V5.92566ZM8.95962 7.2986C9.33118 6.48756 10.1498 5.92566 11.0987 5.92566V4.92566C9.7446 4.92566 8.57897 5.72853 8.05048 6.8821L8.95962 7.2986ZM13.45 8.27566C13.45 9.49658 12.5179 10.5008 11.3262 10.6148L11.4214 11.6103C13.121 11.4477 14.45 10.0173 14.45 8.27566H13.45ZM11.3262 10.6148C11.2969 10.6177 11.2413 10.6205 11.1833 10.6227C11.1564 10.6238 11.132 10.6245 11.1143 10.6251C11.1055 10.6253 11.0984 10.6255 11.0936 10.6256C11.0913 10.6257 11.0894 10.6257 11.0883 10.6258C11.0877 10.6258 11.0873 10.6258 11.087 10.6258C11.0869 10.6258 11.0868 10.6258 11.0867 10.6258C11.0867 10.6258 11.0867 10.6258 11.0867 10.6258C11.0867 10.6258 11.0867 10.6258 11.0867 10.6258C11.0867 10.6258 11.0867 10.6258 11.0867 10.6258C11.0867 10.6258 11.0867 10.6258 11.0987 11.1257C11.1108 11.6255 11.1108 11.6255 11.1108 11.6255C11.1108 11.6255 11.1108 11.6255 11.1108 11.6255C11.1108 11.6255 11.1108 11.6255 11.1109 11.6255C11.1109 11.6255 11.111 11.6255 11.111 11.6255C11.1112 11.6255 11.1113 11.6255 11.1116 11.6255C11.112 11.6255 11.1126 11.6255 11.1134 11.6255C11.115 11.6254 11.1172 11.6254 11.1201 11.6253C11.1257 11.6251 11.1338 11.6249 11.1437 11.6246C11.1635 11.624 11.1909 11.6232 11.2214 11.622C11.2783 11.6198 11.3602 11.6162 11.4214 11.6103L11.3262 10.6148ZM11.1018 10.6257L11.1002 10.6257L11.0973 11.6257L11.099 11.6257L11.1018 10.6257ZM16.1004 7.62567C18.1338 7.62567 20.4885 9.21821 20.5 12.5761L21.5 12.5726C21.4865 8.63645 18.657 6.62567 16.1004 6.62567V7.62567ZM16.0987 1.92566C17.3975 1.92566 18.45 2.97799 18.45 4.27566H19.45C19.45 2.4253 17.9494 0.925659 16.0987 0.925659V1.92566ZM13.9596 3.2986C14.3312 2.48756 15.1498 1.92566 16.0987 1.92566V0.925659C14.7446 0.925659 13.579 1.72853 13.0505 2.8821L13.9596 3.2986ZM18.45 4.27566C18.45 5.49658 17.5179 6.50082 16.3262 6.61485L16.4214 7.6103C18.121 7.44769 19.45 6.01727 19.45 4.27566H18.45ZM16.3262 6.61485C16.2969 6.61765 16.2413 6.62052 16.1833 6.62273C16.1564 6.62376 16.132 6.62454 16.1143 6.62506C16.1055 6.62531 16.0984 6.62551 16.0936 6.62563C16.0913 6.6257 16.0894 6.62574 16.0883 6.62577C16.0877 6.62579 16.0873 6.6258 16.087 6.6258C16.0869 6.62581 16.0868 6.62581 16.0867 6.62581C16.0867 6.62581 16.0867 6.62581 16.0867 6.62581C16.0867 6.62581 16.0867 6.62581 16.0867 6.62581C16.0867 6.62581 16.0867 6.62581 16.0867 6.62581C16.0867 6.62581 16.0867 6.62581 16.0987 7.12567C16.1108 7.62552 16.1108 7.62552 16.1108 7.62552C16.1108 7.62552 16.1108 7.62552 16.1108 7.62552C16.1108 7.62552 16.1108 7.62552 16.1109 7.62552C16.1109 7.62552 16.111 7.62552 16.111 7.62552C16.1112 7.62551 16.1113 7.62551 16.1116 7.6255C16.112 7.62549 16.1126 7.62548 16.1134 7.62546C16.115 7.62542 16.1172 7.62536 16.1201 7.62528C16.1257 7.62513 16.1338 7.62491 16.1437 7.62462C16.1635 7.62404 16.1909 7.62317 16.2214 7.62201C16.2783 7.61984 16.3602 7.61616 16.4214 7.6103L16.3262 6.61485ZM16.1018 6.62567L16.1002 6.62567L16.0973 7.62566L16.099 7.62567L16.1018 6.62567ZM6.18901 15.5525C8.03916 15.5525 9.53901 14.0527 9.53901 12.2025H8.53901C8.53901 13.5004 7.48688 14.5525 6.18901 14.5525V15.5525ZM2.839 12.2025C2.839 14.0527 4.33885 15.5525 6.18901 15.5525V14.5525C4.89114 14.5525 3.839 13.5004 3.839 12.2025H2.839ZM6.18901 8.85251C4.33885 8.85251 2.839 10.3524 2.839 12.2025H3.839C3.839 10.9046 4.89114 9.85251 6.18901 9.85251V8.85251ZM9.53901 12.2025C9.53901 10.3524 8.03916 8.85251 6.18901 8.85251V9.85251C7.48688 9.85251 8.53901 10.9046 8.53901 12.2025H9.53901ZM1.88901 19.8525C1.88901 17.4777 3.81418 15.5525 6.18901 15.5525V14.5525C3.26189 14.5525 0.889008 16.9254 0.889008 19.8525H1.88901ZM1.88901 19.9097V19.8525H0.889008V19.9097H1.88901ZM10.489 19.8525V19.9097H11.489V19.8525H10.489ZM6.18901 15.5525C8.56383 15.5525 10.489 17.4777 10.489 19.8525H11.489C11.489 16.9254 9.11612 14.5525 6.18901 14.5525V15.5525Z" fill="#161616"/>
</svg>
