<svg width="18" height="20" viewBox="0 0 18 20" fill="none" xmlns="http://www.w3.org/2000/svg">
<path d="M1 3.14286H17M6.71429 6.57143V15.7143M11.2857 6.57143V15.7143M3.28571 3.14286H14.7143V16.8571C14.7143 17.4634 14.4735 18.0447 14.0448 18.4734C13.6162 18.902 13.0348 19.1429 12.4286 19.1429H5.57143C4.96522 19.1429 4.38384 18.902 3.95518 18.4734C3.52653 18.0447 3.28571 17.4634 3.28571 16.8571V3.14286ZM9 0.857147C9.57666 0.856965 10.1321 1.07475 10.5549 1.46686C10.9777 1.85896 11.2368 2.3964 11.28 2.97143L11.2857 3.14286H6.71429C6.71429 2.53665 6.9551 1.95527 7.38376 1.52662C7.81241 1.09796 8.39379 0.857147 9 0.857147V0.857147Z" stroke="black" stroke-linecap="round" stroke-linejoin="round"/>
</svg>
