<svg width="16" height="20" viewBox="0 0 16 20" fill="none" xmlns="http://www.w3.org/2000/svg">
<path d="M0.799988 2.79999V17.2C0.799988 17.8365 1.05284 18.447 1.50293 18.8971C1.95302 19.3471 2.56347 19.6 3.19999 19.6H14.6C14.7591 19.6 14.9117 19.5368 15.0243 19.4243C15.1368 19.3117 15.2 19.1591 15.2 19C15.2 18.8409 15.1368 18.6883 15.0243 18.5757C14.9117 18.4632 14.7591 18.4 14.6 18.4H3.19999C2.88173 18.4 2.5765 18.2736 2.35146 18.0485C2.12642 17.8235 1.99999 17.5183 1.99999 17.2H14C14.3182 17.2 14.6235 17.0736 14.8485 16.8485C15.0736 16.6235 15.2 16.3183 15.2 16V2.79999C15.2 2.16347 14.9471 1.55302 14.497 1.10294C14.047 0.65285 13.4365 0.399994 12.8 0.399994H3.19999C2.56347 0.399994 1.95302 0.65285 1.50293 1.10294C1.05284 1.55302 0.799988 2.16347 0.799988 2.79999ZM12.8 1.59999C13.1182 1.59999 13.4235 1.72642 13.6485 1.95147C13.8736 2.17651 14 2.48173 14 2.79999V16H1.99999V2.79999C1.99999 2.48173 2.12642 2.17651 2.35146 1.95147C2.5765 1.72642 2.88173 1.59999 3.19999 1.59999H12.8Z" fill="black"/>
<path fill-rule="evenodd" clip-rule="evenodd" d="M6.03248 3.89999C5.48382 3.89999 4.95762 4.11794 4.56966 4.50591C4.18169 4.89388 3.96373 5.42007 3.96373 5.96874V7.27499H3.50123C3.40012 7.27499 3.30315 7.31515 3.23165 7.38665C3.16015 7.45815 3.11998 7.55512 3.11998 7.65624C3.11998 7.75735 3.16015 7.85432 3.23165 7.92582C3.30315 7.99732 3.40012 8.03749 3.50123 8.03749H3.96373V12.1562C3.96373 12.4065 4.06316 12.6466 4.24015 12.8236C4.41714 13.0006 4.65718 13.1 4.90748 13.1H5.46998C5.72028 13.1 5.96033 13.0006 6.13731 12.8236C6.3143 12.6466 6.41373 12.4065 6.41373 12.1562V11.975H9.58873V12.1562C9.58873 12.4065 9.68816 12.6466 9.86515 12.8236C10.0421 13.0006 10.2822 13.1 10.5325 13.1H11.095C11.3453 13.1 11.5853 13.0006 11.7623 12.8236C11.9393 12.6466 12.0387 12.4065 12.0387 12.1562V8.03749H12.5012C12.6023 8.03749 12.6993 7.99732 12.7708 7.92582C12.8423 7.85432 12.8825 7.75735 12.8825 7.65624C12.8825 7.55512 12.8423 7.45815 12.7708 7.38665C12.6993 7.31515 12.6023 7.27499 12.5012 7.27499H12.0387V5.96874C12.0387 5.42007 11.8208 4.89388 11.4328 4.50591C11.0448 4.11794 10.5186 3.89999 9.96998 3.89999H6.03248ZM5.10882 5.04508C5.35379 4.80011 5.68604 4.66249 6.03248 4.66249H9.96998C10.3164 4.66249 10.6487 4.80011 10.8936 5.04508C11.1386 5.29005 11.2762 5.6223 11.2762 5.96874V8.39999H4.72623V5.96874C4.72623 5.6223 4.86385 5.29005 5.10882 5.04508ZM7.43873 5.02499C7.33762 5.02499 7.24065 5.06516 7.16915 5.13665C7.09765 5.20815 7.05748 5.30512 7.05748 5.40624C7.05748 5.50735 7.09765 5.60432 7.16915 5.67582C7.24065 5.74732 7.33762 5.78749 7.43873 5.78749H8.56373C8.66485 5.78749 8.76182 5.74732 8.83332 5.67582C8.90482 5.60432 8.94498 5.50735 8.94498 5.40624C8.94498 5.30512 8.90482 5.20815 8.83332 5.13665C8.76182 5.06516 8.66485 5.02499 8.56373 5.02499H7.43873ZM4.72623 11.2125V9.16249H11.2762V11.2125H4.72623ZM6.31373 9.52499C6.13803 9.52499 5.96952 9.59479 5.84527 9.71903C5.72103 9.84327 5.65123 10.0118 5.65123 10.1875C5.65123 10.3632 5.72103 10.5317 5.84527 10.6559C5.96952 10.7802 6.13803 10.85 6.31373 10.85C6.48944 10.85 6.65795 10.7802 6.78219 10.6559C6.90643 10.5317 6.97623 10.3632 6.97623 10.1875C6.97623 10.0118 6.90643 9.84327 6.78219 9.71903C6.65795 9.59479 6.48944 9.52499 6.31373 9.52499ZM9.68873 9.52499C9.51303 9.52499 9.34452 9.59479 9.22027 9.71903C9.09603 9.84327 9.02623 10.0118 9.02623 10.1875C9.02623 10.3632 9.09603 10.5317 9.22027 10.6559C9.34452 10.7802 9.51303 10.85 9.68873 10.85C9.86444 10.85 10.0329 10.7802 10.1572 10.6559C10.2814 10.5317 10.3512 10.3632 10.3512 10.1875C10.3512 10.0118 10.2814 9.84327 10.1572 9.71903C10.0329 9.59479 9.86444 9.52499 9.68873 9.52499ZM4.72623 12.1562V11.975H5.65123V12.1562C5.65123 12.2043 5.63214 12.2504 5.59815 12.2844C5.56415 12.3184 5.51805 12.3375 5.46998 12.3375H4.90748C4.85941 12.3375 4.81331 12.3184 4.77932 12.2844C4.74533 12.2504 4.72623 12.2043 4.72623 12.1562ZM10.3512 12.1562V11.975H11.2762V12.1562C11.2762 12.2043 11.2571 12.2504 11.2231 12.2844C11.1892 12.3184 11.1431 12.3375 11.095 12.3375H10.5325C10.4844 12.3375 10.4383 12.3184 10.4043 12.2844C10.3703 12.2504 10.3512 12.2043 10.3512 12.1562Z" fill="black"/>
</svg>
