<svg width="20" height="18" viewBox="0 0 20 18" fill="none" xmlns="http://www.w3.org/2000/svg">
<path fill-rule="evenodd" clip-rule="evenodd" d="M3.5 5C3.5 2.51472 5.51472 0.5 8 0.5C10.4853 0.5 12.5 2.51472 12.5 5C12.5 7.48528 10.4853 9.5 8 9.5C5.51472 9.5 3.5 7.48528 3.5 5ZM8 1.5C6.067 1.5 4.5 3.067 4.5 5C4.5 6.933 6.067 8.5 8 8.5C9.933 8.5 11.5 6.933 11.5 5C11.5 3.067 9.933 1.5 8 1.5ZM0.5 18C0.5 13.8579 3.85786 10.5 8 10.5C12.1421 10.5 15.5 13.8579 15.5 18H14.5C14.5 14.4101 11.5899 11.5 8 11.5C4.41015 11.5 1.5 14.4101 1.5 18H0.5Z" fill="black"/>
<path d="M19.4843 5.09005L16.0929 8.5691C16.0333 8.63021 16 8.71217 16 8.7975C16 8.88284 16.0333 8.9648 16.0929 9.02591L19.4843 12.5063C19.512 12.5348 19.5452 12.5574 19.5818 12.5729C19.6185 12.5883 19.6578 12.5963 19.6976 12.5963C19.7374 12.5963 19.7768 12.5883 19.8134 12.5729C19.85 12.5574 19.8832 12.5348 19.911 12.5063C19.968 12.4478 20 12.3694 20 12.2877C20 12.206 19.968 12.1275 19.911 12.0691L16.7218 8.7975L19.911 5.52656C19.9678 5.46815 19.9997 5.38984 19.9997 5.3083C19.9997 5.22677 19.9678 5.14846 19.911 5.09005C19.8832 5.06155 19.85 5.0389 19.8134 5.02343C19.7768 5.00797 19.7374 5 19.6976 5C19.6578 5 19.6185 5.00797 19.5818 5.02343C19.5452 5.0389 19.512 5.06155 19.4843 5.09005Z" fill="black"/>
</svg>
